<?xml version="1.0" encoding="UTF-8" standalone="no"?>
<!-- Created with Inkscape (http://www.inkscape.org/) -->

<svg
   xmlns:dc="http://purl.org/dc/elements/1.1/"
   xmlns:cc="http://creativecommons.org/ns#"
   xmlns:rdf="http://www.w3.org/1999/02/22-rdf-syntax-ns#"
   xmlns:svg="http://www.w3.org/2000/svg"
   xmlns="http://www.w3.org/2000/svg"
   xmlns:sodipodi="http://sodipodi.sourceforge.net/DTD/sodipodi-0.dtd"
   xmlns:inkscape="http://www.inkscape.org/namespaces/inkscape"
   width="500"
   height="500"
   id="svg2"
   version="1.1"
   inkscape:version="0.48.0 r9654"
   inkscape:export-filename="/Users/Luke/Sites/MusicMe/client/images/error.png"
   inkscape:export-xdpi="90"
   inkscape:export-ydpi="90"
   sodipodi:docname="error.svg">
  <defs
     id="defs4" />
  <sodipodi:namedview
     id="base"
     pagecolor="#ffffff"
     bordercolor="#666666"
     borderopacity="1.0"
     inkscape:pageopacity="0.0"
     inkscape:pageshadow="2"
     inkscape:zoom="0.82487437"
     inkscape:cx="264.82568"
     inkscape:cy="247.14286"
     inkscape:document-units="px"
     inkscape:current-layer="layer1"
     showgrid="false"
     inkscape:window-width="996"
     inkscape:window-height="788"
     inkscape:window-x="94"
     inkscape:window-y="53"
     inkscape:window-maximized="0" />
  <metadata
     id="metadata7">
    <rdf:RDF>
      <cc:Work
         rdf:about="">
        <dc:format>image/svg+xml</dc:format>
        <dc:type
           rdf:resource="http://purl.org/dc/dcmitype/StillImage" />
        <dc:title></dc:title>
      </cc:Work>
    </rdf:RDF>
  </metadata>
  <g
     inkscape:label="Layer 1"
     inkscape:groupmode="layer"
     id="layer1"
     transform="translate(0,-552.36218)">
    <path
       sodipodi:type="arc"
       style="fill:none;fill-opacity:0.03921569000000000;stroke:#800000;stroke-width:15;stroke-linecap:round;stroke-linejoin:round;stroke-miterlimit:4;stroke-opacity:0.03921569;stroke-dasharray:none"
       id="path3755"
       sodipodi:cx="260.64575"
       sodipodi:cy="266.63113"
       sodipodi:rx="202.45508"
       sodipodi:ry="201.84892"
       d="m 463.10083,266.63113 a 202.45508,201.84892 0 1 1 -404.910156,0 202.45508,201.84892 0 1 1 404.910156,0 z"
       transform="matrix(1.1906671,0,0,1.1942427,-60.342319,483.93989)" />
    <path
       inkscape:connector-curvature="0"
       id="path3757"
       d="m 372.13304,686.49731 -35.37659,35.69277 -35.69279,-35.37661 -4.28806,4.3264 35.69277,35.37659 -35.37661,35.69279 4.3264,4.28806 35.37659,-35.69277 35.69279,35.37661 4.28806,-4.3264 -35.69277,-35.37659 35.37661,-35.69279 -4.3264,-4.28806 z"
       style="fill:#830000;fill-opacity:0.03921569;stroke:none" />
    <path
       style="fill:none;stroke:#800000;stroke-width:10;stroke-linecap:round;stroke-linejoin:round;stroke-miterlimit:4;stroke-opacity:0.03921569;stroke-dasharray:none"
       d="m 124.8675,933.55621 c 0,0 61.59259,-39.25965 126.04685,-42.49246 64.45426,-3.23282 137.02351,44.91707 137.02351,44.91707"
       id="path3759"
       inkscape:connector-curvature="0"
       sodipodi:nodetypes="czc" />
    <path
       style="fill:#830000;fill-opacity:0.03921569;stroke:none"
       d="m 204.83484,687.70962 -35.37659,35.69277 -35.69279,-35.37661 -4.28806,4.3264 35.69277,35.37659 -35.37661,35.69279 4.3264,4.28806 35.37659,-35.69277 35.69279,35.37661 4.28806,-4.3264 -35.69277,-35.37659 35.37661,-35.69279 -4.3264,-4.28806 z"
       id="path3761"
       inkscape:connector-curvature="0" />
  </g>
</svg>
