<?xml version="1.0" encoding="UTF-8" standalone="no"?>
<!-- Created with Inkscape (http://www.inkscape.org/) -->

<svg
   xmlns:dc="http://purl.org/dc/elements/1.1/"
   xmlns:cc="http://creativecommons.org/ns#"
   xmlns:rdf="http://www.w3.org/1999/02/22-rdf-syntax-ns#"
   xmlns:svg="http://www.w3.org/2000/svg"
   xmlns="http://www.w3.org/2000/svg"
   xmlns:xlink="http://www.w3.org/1999/xlink"
   xmlns:sodipodi="http://sodipodi.sourceforge.net/DTD/sodipodi-0.dtd"
   xmlns:inkscape="http://www.inkscape.org/namespaces/inkscape"
   width="63.999996"
   height="63.999996"
   id="svg6370"
   version="1.1"
   inkscape:version="0.48.2 r9819"
   sodipodi:docname="CollectionGenericAlbumArt.svg">
  <defs
     id="defs6372">
    <linearGradient
       inkscape:collect="always"
       id="linearGradient7055">
      <stop
         style="stop-color:#a9afbb;stop-opacity:1"
         offset="0"
         id="stop7057" />
      <stop
         style="stop-color:#676f86;stop-opacity:1"
         offset="1"
         id="stop7059" />
    </linearGradient>
    <linearGradient
       id="linearGradient6996">
      <stop
         style="stop-color:#505050;stop-opacity:1;"
         offset="0"
         id="stop6998" />
      <stop
         style="stop-color:#1a1a1a;stop-opacity:1;"
         offset="1"
         id="stop7000" />
    </linearGradient>
    <linearGradient
       inkscape:collect="always"
       xlink:href="#linearGradient7055"
       id="linearGradient7061"
       x1="-73.506477"
       y1="268.43362"
       x2="-60.064938"
       y2="442.71936"
       gradientUnits="userSpaceOnUse"
       gradientTransform="matrix(0.71185743,0,0,0.71547895,-14.168699,98.762549)" />
    <filter
       inkscape:collect="always"
       id="filter7081"
       color-interpolation-filters="sRGB">
      <feGaussianBlur
         inkscape:collect="always"
         stdDeviation="1.0408303"
         id="feGaussianBlur7083" />
    </filter>
    <radialGradient
       inkscape:collect="always"
       xlink:href="#linearGradient6996"
       id="radialGradient7085"
       gradientUnits="userSpaceOnUse"
       gradientTransform="matrix(1.0355255,-0.00581398,0.00769919,1.3314117,3.6084677,-91.403338)"
       cx="-61.071419"
       cy="258.42841"
       fx="-61.071419"
       fy="258.42841"
       r="96.071434" />
    <radialGradient
       inkscape:collect="always"
       xlink:href="#linearGradient6996"
       id="radialGradient3000"
       gradientUnits="userSpaceOnUse"
       gradientTransform="matrix(1.0355255,-0.00581398,0.00769919,1.3314117,3.6084677,-91.403338)"
       cx="-61.071419"
       cy="258.42841"
       fx="-61.071419"
       fy="258.42841"
       r="96.071434" />
    <linearGradient
       inkscape:collect="always"
       xlink:href="#linearGradient7055"
       id="linearGradient3002"
       gradientUnits="userSpaceOnUse"
       gradientTransform="matrix(0.71185743,0,0,0.71547895,-14.168699,98.762549)"
       x1="-73.506477"
       y1="268.43362"
       x2="-60.064938"
       y2="442.71936" />
  </defs>
  <sodipodi:namedview
     id="base"
     pagecolor="#ffffff"
     bordercolor="#666666"
     borderopacity="1.0"
     inkscape:pageopacity="0.0"
     inkscape:pageshadow="2"
     inkscape:zoom="0.7"
     inkscape:cx="135.85432"
     inkscape:cy="53.776655"
     inkscape:document-units="px"
     inkscape:current-layer="layer1"
     showgrid="false"
     inkscape:window-width="919"
     inkscape:window-height="802"
     inkscape:window-x="206"
     inkscape:window-y="36"
     inkscape:window-maximized="0"
     fit-margin-top="0"
     fit-margin-left="0"
     fit-margin-right="0"
     fit-margin-bottom="0" />
  <metadata
     id="metadata6375">
    <rdf:RDF>
      <cc:Work
         rdf:about="">
        <dc:format>image/svg+xml</dc:format>
        <dc:type
           rdf:resource="http://purl.org/dc/dcmitype/StillImage" />
        <dc:title />
      </cc:Work>
    </rdf:RDF>
  </metadata>
  <g
     inkscape:label="Layer 1"
     inkscape:groupmode="layer"
     id="layer1"
     transform="translate(157.64713,-388.15059)">
    <g
       id="g2995"
       transform="matrix(0.31999999,0,0,0.31999999,-107.19713,307.46059)">
      <rect
         y="252.66188"
         x="-157.12888"
         height="198.97208"
         width="198.97208"
         id="rect6486"
         style="fill:url(#radialGradient3000);fill-opacity:1;stroke:#ececec;stroke-width:1.02792799" />
      <path
         transform="matrix(1.1720647,0,0,1.1780275,13.936817,-63.147978)"
         id="path7063"
         d="m -50.018172,310.73236 c 0.75487,7.75379 -5.0096,14.02885 -10.11348,19.10136 -2.31869,2.22514 -0.38432,0.36754 -1.59648,1.47401 -0.25335,-1.1896 -0.7405,-4.29468 -0.69498,-5.23434 0.32365,-6.68146 5.75368,-16.33835 10.51083,-19.90012 0.76618,1.43037 1.39794,1.54545 1.89411,4.55909 z m 1.61461,40.03574 c -3.05694,-2.24698 -7.06951,-2.83597 -10.74926,-2.19502 -0.47456,-3.11182 -0.94912,-6.22366 -1.42367,-9.33548 5.83109,-5.77653 12.1694,-12.48019 12.50295,-21.17876 0.14572,-5.53569 -0.68516,-11.58595 -4.16366,-16.08066 -4.21672,0.31803 -7.19065,5.34725 -9.4288,8.47366 -3.69283,6.62343 -2.83095,14.67525 -1.41382,21.81713 -2.00746,2.36048 -4.78565,4.32412 -6.76447,6.78043 -5.84364,5.72607 -10.93396,13.46819 -9.93237,22.02023 0.45476,8.26902 6.42234,15.95863 14.55941,17.92533 3.0896,0.77933 6.35915,0.8562 9.48465,0.24353 0.54549,5.58071 2.54734,11.48256 0.22941,16.89797 -1.73797,3.96483 -6.91373,7.45233 -10.74553,5.43638 -1.48657,-0.78208 -0.28193,-0.1259 -1.18567,-0.62321 2.65349,-0.63817 4.95957,-2.57074 5.60547,-3.88133 2.07788,-3.63153 -0.9917,-9.02599 -5.34586,-8.33058 -5.61026,0.11603 -7.91304,7.78982 -4.30473,11.61981 3.34034,3.7709 9.50668,3.25452 13.46786,0.78873 4.49656,-2.92653 5.05769,-8.78787 4.5441,-13.79496 -0.17231,-1.6801 -0.99786,-6.6218 -1.10003,-8.40008 1.72925,-0.61597 0.519,-0.14653 2.95835,-1.11242 6.59791,-2.61256 10.80756,-10.56279 8.91422,-17.66604 -0.78918,-3.64298 -2.58859,-7.22658 -5.70855,-9.40466 z m 1.39141,14.27866 c 0.53086,4.93982 -2.61343,10.71818 -7.63664,12.30164 -0.33796,-1.9717 -0.42704,-2.50704 -0.65225,-3.65617 -1.19601,-6.10312 -1.84528,-12.37101 -2.76793,-18.55649 4.03015,-0.41681 8.57568,1.3473 9.97767,5.41868 0.60451,1.42954 0.84888,2.96818 1.07915,4.49234 z m -12.77064,12.88715 c -6.31003,0.35088 -12.39995,-3.95588 -13.97422,-10.12015 -1.85771,-5.3403 -1.31033,-11.48404 2.03544,-16.13317 2.76579,-4.22108 6.46471,-7.69951 9.99181,-11.26742 0.45388,2.79601 0.90774,5.59202 1.36161,8.38805 -7.41742,1.93986 -12.41251,11.71966 -7.97387,18.48014 1.32056,1.89553 4.90207,5.5139 6.85904,4.05268 -2.73316,-1.69243 -4.96868,-4.60935 -4.48793,-8.00268 -0.20371,-3.18077 3.39752,-7.21894 6.57576,-7.93254 1.08737,7.11636 2.33459,15.06405 3.42196,22.18043 -1.25347,0.24807 -2.53267,0.3546 -3.8096,0.35466 z"
         inkscape:connector-curvature="0"
         style="fill:#333333;fill-opacity:1;filter:url(#filter7081)" />
      <path
         style="fill:url(#linearGradient3002);fill-opacity:1"
         inkscape:connector-curvature="0"
         d="m -44.687717,302.90328 c 0.884756,9.13418 -5.871575,16.52637 -11.853653,22.50193 -2.717655,2.62128 -0.450448,0.43297 -1.871178,1.73642 -0.296943,-1.40138 -0.867914,-5.05925 -0.814562,-6.16619 0.37934,-7.87095 6.743685,-19.24703 12.319374,-23.44289 0.898012,1.68502 1.638476,1.82058 2.220019,5.37073 z m 1.892428,47.16321 c -3.582932,-2.64701 -8.285924,-3.34085 -12.598829,-2.5858 -0.556215,-3.66581 -1.11243,-7.33164 -1.668634,-10.99745 6.834416,-6.80491 14.263325,-14.70201 14.654267,-24.94916 0.170793,-6.5212 -0.803052,-13.64857 -4.880079,-18.94346 -4.942269,0.37465 -8.427907,6.29921 -11.051164,9.9822 -4.328236,7.80259 -3.318057,17.28785 -1.657088,25.70118 -2.352873,2.78071 -5.609092,5.09393 -7.928397,7.98754 -6.849124,6.74546 -12.815309,15.86589 -11.64138,25.94043 0.533008,9.74113 7.527398,18.79971 17.06457,21.11653 3.621212,0.91808 7.453336,1.00863 11.116624,0.28689 0.63935,6.57423 2.985647,13.52677 0.268883,19.90627 -2.037012,4.67068 -8.103339,8.77905 -12.594456,6.40421 -1.742356,-0.92131 -0.33044,-0.14832 -1.389682,-0.73416 3.110062,-0.75178 5.812937,-3.0284 6.569973,-4.57232 2.43541,-4.27804 -1.162336,-10.63286 -6.265693,-9.81365 -6.575588,0.13669 -9.274596,9.17662 -5.045422,13.68846 3.915094,4.44222 11.142443,3.83391 15.785203,0.92914 5.27026,-3.44753 5.92794,-10.35235 5.325979,-16.25084 -0.201958,-1.9792 -1.169557,-7.80066 -1.289306,-9.89552 2.026792,-0.72563 0.608302,-0.17262 3.467378,-1.31046 7.733178,-3.07767 12.667159,-12.44326 10.448042,-20.81109 -0.924969,-4.29153 -3.033995,-8.51311 -6.690789,-11.07894 z m 1.630822,16.82065 c 0.622202,5.81924 -3.06311,12.62631 -8.950636,14.49167 -0.396111,-2.32272 -0.500519,-2.95336 -0.76448,-4.30707 -1.4018,-7.18964 -2.162787,-14.57339 -3.244192,-21.86005 4.723596,-0.49102 10.051252,1.58715 11.694474,6.38335 0.708525,1.68404 0.994942,3.4966 1.264834,5.2921 z m -14.968016,15.18142 c -7.395764,0.41334 -14.533545,-4.66014 -16.378691,-11.92182 -2.177356,-6.29102 -1.535792,-13.52851 2.385667,-19.00532 3.241685,-4.97254 7.577059,-9.07023 11.711048,-13.27333 0.531978,3.29378 1.06393,6.58756 1.595895,9.88136 -8.693695,2.28521 -14.548265,13.80608 -9.345891,21.77011 1.547781,2.23299 5.745544,6.49553 8.039239,4.77417 -3.203441,-1.99373 -5.823615,-5.42994 -5.260145,-9.42738 -0.238761,-3.74703 3.982113,-8.50411 7.707216,-9.34475 1.274469,8.38327 2.736291,17.74587 4.010759,26.12916 -1.469148,0.29223 -2.968453,0.41773 -4.465097,0.4178 z"
         id="path7045" />
    </g>
  </g>
</svg>
