<?xml version="1.0" encoding="UTF-8" standalone="no"?>
<!-- Created with Inkscape (http://www.inkscape.org/) -->

<svg
   xmlns:dc="http://purl.org/dc/elements/1.1/"
   xmlns:cc="http://creativecommons.org/ns#"
   xmlns:rdf="http://www.w3.org/1999/02/22-rdf-syntax-ns#"
   xmlns:svg="http://www.w3.org/2000/svg"
   xmlns="http://www.w3.org/2000/svg"
   xmlns:xlink="http://www.w3.org/1999/xlink"
   xmlns:sodipodi="http://sodipodi.sourceforge.net/DTD/sodipodi-0.dtd"
   xmlns:inkscape="http://www.inkscape.org/namespaces/inkscape"
   width="128"
   height="128"
   id="svg2"
   version="1.1"
   inkscape:version="0.48.2 r9819"
   sodipodi:docname="New document 1">
  <defs
     id="defs4">
    <linearGradient
       id="linearGradient3845">
      <stop
         id="stop3847"
         offset="0"
         style="stop-color:#b0c1ff;stop-opacity:1" />
      <stop
         id="stop3849"
         offset="1"
         style="stop-color:#385ad0;stop-opacity:1" />
    </linearGradient>
    <linearGradient
       id="linearGradient3815">
      <stop
         style="stop-color:#6380ea;stop-opacity:1;"
         offset="0"
         id="stop3817" />
      <stop
         style="stop-color:#385ad0;stop-opacity:1"
         offset="1"
         id="stop3819" />
    </linearGradient>
    <linearGradient
       inkscape:collect="always"
       xlink:href="#linearGradient3815"
       id="linearGradient3823"
       x1="54.961941"
       y1="930.27838"
       x2="91.725883"
       y2="1085.3368"
       gradientUnits="userSpaceOnUse"
       gradientTransform="translate(-1.5152287,0)" />
    <radialGradient
       inkscape:collect="always"
       xlink:href="#linearGradient3845"
       id="radialGradient3853"
       cx="28.431076"
       cy="1022.2808"
       fx="28.431076"
       fy="1022.2808"
       r="58.535542"
       gradientTransform="matrix(1.453782,-0.64720291,0.66171773,1.486386,-718.4437,-505.16439)"
       gradientUnits="userSpaceOnUse" />
    <linearGradient
       inkscape:collect="always"
       xlink:href="#linearGradient3815"
       id="linearGradient3855"
       gradientUnits="userSpaceOnUse"
       gradientTransform="translate(-2.020305,1.5152288)"
       x1="54.961941"
       y1="930.27838"
       x2="91.725883"
       y2="1085.3368" />
    <linearGradient
       inkscape:collect="always"
       xlink:href="#linearGradient3815"
       id="linearGradient3861"
       gradientUnits="userSpaceOnUse"
       gradientTransform="translate(-2.020305,1.5152288)"
       x1="54.961941"
       y1="930.27838"
       x2="81.624359"
       y2="1044.9307" />
  </defs>
  <sodipodi:namedview
     id="base"
     pagecolor="#ffffff"
     bordercolor="#666666"
     borderopacity="1.0"
     inkscape:pageopacity="0.0"
     inkscape:pageshadow="2"
     inkscape:zoom="1.979899"
     inkscape:cx="41.694304"
     inkscape:cy="55.670301"
     inkscape:document-units="px"
     inkscape:current-layer="layer1"
     showgrid="false"
     inkscape:window-width="942"
     inkscape:window-height="722"
     inkscape:window-x="290"
     inkscape:window-y="192"
     inkscape:window-maximized="0" />
  <metadata
     id="metadata7">
    <rdf:RDF>
      <cc:Work
         rdf:about="">
        <dc:format>image/svg+xml</dc:format>
        <dc:type
           rdf:resource="http://purl.org/dc/dcmitype/StillImage" />
        <dc:title></dc:title>
      </cc:Work>
    </rdf:RDF>
  </metadata>
  <g
     inkscape:label="Layer 1"
     inkscape:groupmode="layer"
     id="layer1"
     transform="translate(0,-924.36218)">
    <g
       id="g3857"
       transform="matrix(1.0933529,0,0,1.0933529,-3.7656848,-93.923212)">
      <path
         style="fill:#1a1a1a;fill-opacity:0.22596154;stroke:none"
         d="m 61.222082,931.84741 c -30.236191,0 -54.7474647,24.51128 -54.7474647,54.74747 0,25.38722 17.2787697,46.74802 40.7184267,52.94322 -1.133301,-4.5892 1.638495,-10.2196 6.843433,-10.3273 5.124869,-0.8185 8.729182,5.5243 6.283516,9.7985 -0.33349,0.6768 -1.035708,1.5029 -1.990817,2.2708 0.953685,0.049 1.926922,0.062 2.892906,0.062 1.48632,0 2.960704,-0.071 4.417125,-0.1867 0.902192,-0.9877 1.645979,-2.0936 2.146349,-3.2351 2.728191,-6.3739 0.362097,-13.3086 -0.279958,-19.8769 -3.678716,0.7209 -7.530764,0.606 -11.167239,-0.3111 -9.577353,-2.3149 -16.60442,-11.3576 -17.139689,-21.09031 -1.178869,-10.0658 4.818071,-19.17211 11.696049,-25.91173 2.329072,-2.89107 5.600478,-5.21609 7.963267,-7.99437 -1.667957,-8.40601 -2.666706,-17.86709 1.679752,-25.66287 1.08795,-1.51973 2.338484,-3.39723 3.763888,-5.13258 -1.016089,-0.0561 -2.049423,-0.0932 -3.079544,-0.0932 z m 9.922977,0.90209 c -5.371487,4.64969 -11.148067,15.24802 -11.509409,22.70775 -0.05357,1.10598 0.51057,4.75896 0.808769,6.1591 1.426711,-1.3023 -0.831624,0.87704 1.897498,-1.74197 6.007265,-5.97035 12.771182,-13.36376 11.882688,-22.49001 -0.443059,-2.69107 -0.991369,-3.39429 -1.617539,-4.3238 -0.484511,-0.10245 -0.972858,-0.22153 -1.462007,-0.31107 z m 3.826103,0.87098 c 1.288771,3.96876 1.663122,8.31626 1.555324,12.4115 -0.392576,10.23823 -7.850169,18.11734 -14.713381,24.91632 0.558565,3.66263 1.121189,7.31796 1.679753,10.9806 4.331074,-0.75442 9.031216,-0.0628 12.629244,2.58184 3.672206,2.5636 5.790139,6.78609 6.719007,11.07393 2.228476,8.36053 -2.717124,17.73513 -10.482895,20.81023 -2.871113,1.1369 -1.44859,0.5815 -3.48393,1.3065 0.120273,2.0931 1.103648,7.9143 1.306475,9.8918 0.465668,4.5401 0.148695,9.6503 -2.426309,13.3448 27.154347,-3.2311 48.2151,-26.3191 48.2151,-54.34312 0,-25.48772 -17.417013,-46.87523 -40.998388,-52.9744 z m -14.526743,38.72761 c -4.151397,4.19945 -8.502922,8.28315 -11.758262,13.25137 -3.937972,5.47203 -4.581728,12.68953 -2.395202,18.97504 1.852918,7.2554 9.028438,12.3268 16.455346,11.9137 1.502963,-10e-5 3.003994,-0.1123 4.479338,-0.4044 -1.279844,-8.376 -2.764031,-17.72241 -4.043847,-26.09831 -3.740807,0.83992 -7.95417,5.58816 -7.714415,9.332 -0.565832,3.99391 2.040077,7.43311 5.257001,9.42521 -2.303353,1.7198 -6.502277,-2.5593 -8.056588,-4.7904 -5.224268,-7.95711 0.663856,-19.4602 9.394168,-21.74345 -0.534189,-3.29091 -1.083321,-6.56983 -1.617539,-9.86076 z m 5.194788,17.26411 c -0.300157,0.0106 -0.574513,0.0316 -0.870982,0.0622 1.08595,7.28033 1.82737,14.6535 3.235077,21.8369 0.265067,1.3526 0.37989,1.972 0.777663,4.2928 5.912329,-1.8639 9.614612,-8.6504 8.989783,-14.4647 -0.271023,-1.79387 -0.563865,-3.60557 -1.275367,-5.28817 -1.547015,-4.49251 -6.353825,-6.5976 -10.856174,-6.43904 z"
         id="path3825"
         inkscape:connector-curvature="0" />
      <path
         inkscape:connector-curvature="0"
         id="path2985"
         d="m 61.979696,931.34238 c -32.328285,0 -58.5355358,26.20725 -58.5355358,58.53554 0,27.14378 18.4743168,49.98258 43.5358048,56.60658 -1.211716,-4.9068 1.751865,-10.9268 7.316942,-11.0419 5.479468,-0.8752 9.333169,5.9065 6.718283,10.4765 -0.356565,0.7236 -1.10737,1.6068 -2.128565,2.4279 1.019672,0.053 2.060249,0.066 3.093071,0.066 1.589161,0 3.16556,-0.076 4.722754,-0.1996 0.964616,-1.056 1.759867,-2.2384 2.294859,-3.4589 2.916959,-6.8149 0.38715,-14.2295 -0.29933,-21.2523 -3.933252,0.7708 -8.05183,0.648 -11.939919,-0.3326 -10.240027,-2.475 -17.753309,-12.1435 -18.325614,-22.5496 -1.260438,-10.76229 5.151441,-20.49868 12.505319,-27.70462 2.490225,-3.09111 5.987985,-5.577 8.51426,-8.54752 -1.783366,-8.98764 -2.851221,-19.10334 1.795977,-27.43853 1.163226,-1.62488 2.500287,-3.63229 4.024318,-5.48771 -1.086394,-0.06 -2.191227,-0.0997 -3.292624,-0.0997 z m 10.609566,0.9645 c -5.74315,4.97141 -11.919421,16.30306 -12.305766,24.27895 -0.05727,1.18249 0.545898,5.08823 0.864729,6.58525 1.525428,-1.3924 -0.889165,0.93773 2.028789,-1.8625 6.422918,-6.38345 13.654843,-14.28842 12.704872,-24.04613 -0.473715,-2.87727 -1.059964,-3.62914 -1.729459,-4.62298 -0.518036,-0.10953 -1.040171,-0.23685 -1.563165,-0.33259 z m 4.090836,0.93125 c 1.377944,4.24336 1.778197,8.89168 1.662941,13.27027 -0.419739,10.94664 -8.393337,19.37091 -15.731425,26.64033 0.597212,3.91605 1.198765,7.8243 1.795977,11.74036 4.630749,-0.80662 9.656102,-0.0672 13.503084,2.76048 3.926292,2.74099 6.190769,7.25564 7.183907,11.84017 2.382667,8.93906 -2.905127,18.96236 -11.208225,22.25016 -3.069771,1.2155 -1.548821,0.6218 -3.724989,1.3969 0.128594,2.2379 1.18001,8.4619 1.396871,10.5763 0.497889,4.8542 0.158984,10.3179 -2.594189,14.2681 29.033212,-3.4547 51.55119,-28.1402 51.55119,-58.10328 0,-27.25126 -18.62212,-50.11861 -43.835142,-56.63979 z m -15.531873,41.40724 c -4.438639,4.49001 -9.091253,8.85627 -12.571837,14.16826 -4.210447,5.85064 -4.898745,13.56757 -2.560929,20.28797 1.981124,7.7574 9.65313,13.1797 17.59392,12.7381 1.606955,-10e-5 3.211845,-0.1201 4.789271,-0.4324 -1.368399,-8.9555 -2.955279,-18.9486 -4.323648,-27.90417 -3.99964,0.89803 -8.504533,5.97481 -8.248189,9.97777 -0.604983,4.2703 2.181233,7.9474 5.620742,10.0773 -2.462726,1.8388 -6.95218,-2.7363 -8.614037,-5.1218 -5.585745,-8.50766 0.709789,-20.80676 10.044166,-23.24798 -0.57115,-3.51863 -1.158277,-7.02442 -1.729459,-10.54305 z m 5.554225,18.45865 c -0.320925,0.0113 -0.614265,0.0337 -0.931247,0.0665 1.161088,7.78408 1.953808,15.66738 3.458918,23.34778 0.283407,1.4462 0.406175,2.1085 0.83147,4.5898 6.321414,-1.9928 10.279864,-9.2489 9.611802,-15.4654 -0.289775,-1.918 -0.60288,-3.855 -1.363612,-5.65416 -1.654055,-4.80333 -6.793457,-7.05407 -11.607331,-6.88454 z"
         style="fill:url(#linearGradient3861);fill-opacity:1;stroke:none" />
    </g>
  </g>
</svg>
